#!OML:ASF F:\VICON\USERDATA\INSTALL\rory3\rory3.ASF
:FULLY-SPECIFIED
:DEGREES
199
root 13.7761 17.7828 3.22337 -181.182 -54.532 179.561
lowerback 14.4571 1.91284 1.80523
upperback 0.372203 2.80264 0.401661
thorax -7.65271 1.27181 -1.16948
lowerneck -19.4386 -2.29221 -11.2207
upperneck 33.956 -2.96384 6.51206
head 15.4668 -2.2341 4.06299
rclavicle -1.24737e-014 -3.97569e-016
rhumerus -34.2745 -19.5734 -72.5628
rradius 29.8185
rwrist 7.44401
rhand -16.2827 7.93618
rfingers 7.12502
rthumb 9.9274 -21.8097
lclavicle -1.24737e-014 -3.97569e-016
lhumerus -33.5861 7.8636 81.2443
lradius 33.8401
lwrist -6.94764
lhand -19.4069 23.4566
lfingers 7.12502
lthumb 6.9124 53.3237
rfemur -1.09126 1.14127 16.77
rtibia 26.8402
rfoot -21.1539 3.33094
rtoes 2.72651
lfemur -15.2617 -1.79991 -7.61375
ltibia 38.169
lfoot -11.0712 -4.15146
ltoes -11.7071
200
root 13.7265 17.788 3.29158 -181.076 -54.056 179.524
lowerback 14.5415 1.86438 2.01845
upperback 0.345414 2.76435 0.24602
thorax -7.71196 1.24144 -1.45124
lowerneck -19.5882 -2.35063 -11.1638
upperneck 33.8972 -3.04155 6.50747
head 15.4823 -2.2535 4.03531
rclavicle 2.36057e-015 -9.93923e-015
rhumerus -34.3663 -19.5808 -72.7101
rradius 30.0498
rwrist 7.18973
rhand -16.1193 7.9739
rfingers 7.12502
rthumb 10.0851 -21.7644
lclavicle 2.36057e-015 -9.93923e-015
lhumerus -33.6485 7.72476 81.1226
lradius 33.8946
lwrist -6.72909
lhand -19.6965 24.0057
lfingers 7.12502
lthumb 6.63281 53.8818
rfemur -1.13192 1.26647 16.3876
rtibia 26.5822
rfoot -21.0732 3.67989
rtoes 2.28679
lfemur -14.9646 -2.60772 -6.94248
ltibia 36.813
lfoot -10.1849 -3.73442
ltoes -8.17482
201
root 13.6761 17.7913 3.34886 -181.154 -53.5668 179.686
lowerback 14.5588 1.81194 2.25798
upperback 0.331808 2.72506 0.112528
thorax -7.71978 1.21089 -1.72122
lowerneck -19.7133 -2.37343 -11.1655
upperneck 33.9018 -3.11763 6.6579
head 15.5253 -2.26413 4.0876
rclavicle -1.53586e-013 1.11319e-014
rhumerus -34.5526 -19.6894 -72.9009
rradius 30.308
rwrist 7.1839
rhand -16.3536 8.13501
rfingers 7.12502
rthumb 9.85898 -21.6142
lclavicle -1.53586e-013 1.11319e-014
lhumerus -33.7224 7.44986 80.9656
lradius 33.9512
lwrist -6.51826
lhand -20.0156 24.6987
lfingers 7.12502
lthumb 6.32477 54.5843
rfemur -1.11862 1.65738 16.2178
rtibia 26.3439
rfoot -20.9852 3.74055
rtoes 2.06448
lfemur -14.5815 -3.56657 -6.06297
ltibia 35.3542
lfoot -8.90261 -3.49322
ltoes -1.33071
202
root 13.6235 17.7892 3.40154 -181.269 -53.0181 179.812
lowerback 14.6403 1.80592 2.2885
upperback 0.32078 2.72108 0.0770286
thorax -7.7744 1.20566 -1.77896
lowerneck -19.8313 -2.38 -11.1221
upperneck 33.9143 -3.14817 6.70097
head 15.5622 -2.26516 4.0938
rclavicle -4.85532e-014 1.37161e-014
rhumerus -34.6395 -19.5579 -73.0286
rradius 30.4583
rwrist 7.16564
rhand -16.8948 8.43727
rfingers 7.12502
rthumb 9.33682 -21.336
lclavicle -4.85532e-014 1.37161e-014
lhumerus -33.8153 7.34034 80.8569
lradius 33.9216
lwrist -6.53218
lhand -20.2907 25.4591
lfingers 7.12502
lthumb 6.05914 55.3525
rfemur -1.02361 2.15721 16.0593
rtibia 26.1206
rfoot -20.9 3.68657
rtoes 1.734
lfemur -14.0763 -4.40433 -5.21299
ltibia 33.8069
lfoot -7.49753 -3.22622
ltoes 4.32829
203
root 13.5671 17.7835 3.45814 -181.441 -52.4675 179.996
lowerback 14.6883 1.80541 2.25968
upperback 0.339756 2.71963 0.139282
thorax -7.78547 1.2063 -1.69747
lowerneck -19.8694 -2.38215 -11.1484
upperneck 33.7938 -3.12327 6.70489
head 15.5108 -2.25057 4.10069
rclavicle 1.73937e-014 8.15017e-015
rhumerus -34.5822 -19.1464 -73.1113
rradius 30.5576
rwrist 6.96543
rhand -16.9616 8.39761
rfingers 7.12502
rthumb 9.27239 -21.3785
lclavicle 1.73937e-014 8.15017e-015
lhumerus -33.8062 7.6504 80.7349
lradius 33.7288
lwrist -6.58243
lhand -20.2381 25.5224
lfingers 7.12502
lthumb 6.10994 55.4143
rfemur -0.949855 2.61612 15.9243
rtibia 25.9432
rfoot -20.8432 3.74877
rtoes 1.67071
lfemur -13.5113 -5.11546 -4.38434
ltibia 32.1613
lfoot -6.3264 -2.8548
ltoes 4.71118
204
root 13.5109 17.7764 3.51601 -181.465 -51.9552 179.978
lowerback 14.4327 1.87973 1.77578
upperback 0.588475 2.7402 0.424017
thorax -7.41066 1.24336 -1.10986
lowerneck -20.002 -2.48515 -11.4031
upperneck 33.4973 -3.0854 6.62982
head 15.4023 -2.25431 4.11136
rclavicle 8.59744e-015 7.95139e-015
rhumerus -34.1282 -18.543 -72.9656
rradius 30.6603
rwrist 6.54284
rhand -16.5055 8.05989
rfingers 7.12502
rthumb 9.71248 -21.6962
lclavicle 8.59744e-015 7.95139e-015
lhumerus -33.408 8.59533 80.9006
lradius 33.2807
lwrist -6.86447
lhand -20.3583 25.023
lfingers 7.12502
lthumb 5.99389 54.9183
rfemur -0.90505 3.12342 15.6526
rtibia 25.8331
rfoot -20.8107 3.74153
rtoes 1.4082
lfemur -12.8856 -6.03278 -3.70444
ltibia 30.4296
lfoot -5.25433 -2.50456
ltoes 3.79675
